<svg width="36" height="37" viewBox="0 0 36 37" fill="none" xmlns="http://www.w3.org/2000/svg">
<rect x="0.5" y="1" width="35" height="35" rx="7.5" fill="white" fill-opacity="0.96"/>
<g clip-path="url(#clip0_2_1088)">
<path d="M18 23.75C20.8995 23.75 23.25 21.3995 23.25 18.5C23.25 15.6005 20.8995 13.25 18 13.25C15.1005 13.25 12.75 15.6005 12.75 18.5C12.75 21.3995 15.1005 23.75 18 23.75Z" stroke="#3D3D3D" stroke-width="0.875" stroke-linecap="round" stroke-linejoin="round"/>
<path d="M18 21.4166V21.4225" stroke="#3D3D3D" stroke-width="0.875" stroke-linecap="round" stroke-linejoin="round"/>
<path d="M18 19.3751C17.9892 19.1857 18.0403 18.998 18.1455 18.8401C18.2507 18.6823 18.4044 18.563 18.5833 18.5001C18.8026 18.4162 18.9994 18.2826 19.1582 18.1098C19.3171 17.9369 19.4336 17.7296 19.4988 17.5041C19.5639 17.2785 19.5757 17.041 19.5334 16.8101C19.4911 16.5792 19.3958 16.3612 19.2549 16.1734C19.1141 15.9856 18.9316 15.8331 18.7217 15.7278C18.5119 15.6226 18.2805 15.5674 18.0458 15.5668C17.811 15.5661 17.5794 15.62 17.369 15.7241C17.1586 15.8282 16.9752 15.9797 16.8333 16.1667" stroke="#3D3D3D" stroke-width="0.875" stroke-linecap="round" stroke-linejoin="round"/>
</g>
<rect x="0.5" y="1" width="35" height="35" rx="7.5" stroke="#D6D6D6"/>
<defs>
<clipPath id="clip0_2_1088">
<rect width="14" height="16" fill="white" transform="translate(11 10.5)"/>
</clipPath>
</defs>
</svg>
