<svg width="37" height="37" viewBox="0 0 37 37" fill="none" xmlns="http://www.w3.org/2000/svg">
<rect x="0.980011" y="0.5" width="36" height="36" rx="8" fill="white" fill-opacity="0.96"/>
<g clip-path="url(#clip0_2_1149)">
<path d="M18.98 12.5L16.3134 17.1667H21.6467L18.98 12.5Z" stroke="#3D3D3D" stroke-linecap="round" stroke-linejoin="round"/>
<path d="M20.3134 21.8333C20.3134 22.3638 20.5241 22.8725 20.8991 23.2476C21.2742 23.6226 21.7829 23.8333 22.3134 23.8333C22.8438 23.8333 23.3525 23.6226 23.7276 23.2476C24.1026 22.8725 24.3134 22.3638 24.3134 21.8333C24.3134 21.3029 24.1026 20.7942 23.7276 20.4191C23.3525 20.0441 22.8438 19.8333 22.3134 19.8333C21.7829 19.8333 21.2742 20.0441 20.8991 20.4191C20.5241 20.7942 20.3134 21.3029 20.3134 21.8333Z" stroke="#3D3D3D" stroke-linecap="round" stroke-linejoin="round"/>
<path d="M13.6467 20.5C13.6467 20.3232 13.7169 20.1536 13.8419 20.0286C13.967 19.9036 14.1365 19.8333 14.3133 19.8333H16.98C17.1568 19.8333 17.3264 19.9036 17.4514 20.0286C17.5764 20.1536 17.6467 20.3232 17.6467 20.5V23.1667C17.6467 23.3435 17.5764 23.5131 17.4514 23.6381C17.3264 23.7631 17.1568 23.8333 16.98 23.8333H14.3133C14.1365 23.8333 13.967 23.7631 13.8419 23.6381C13.7169 23.5131 13.6467 23.3435 13.6467 23.1667V20.5Z" stroke="#3D3D3D" stroke-linecap="round" stroke-linejoin="round"/>
</g>
<defs>
<clipPath id="clip0_2_1149">
<rect width="16" height="16" fill="white" transform="translate(10.98 10.5)"/>
</clipPath>
</defs>
</svg>
