<svg width="16" height="16" viewBox="0 0 16 16" fill="none" xmlns="http://www.w3.org/2000/svg">
<g clip-path="url(#clip0_2_1005)">
<path d="M7.98999 14C11.3037 14 13.99 11.3137 13.99 8C13.99 4.68629 11.3037 2 7.98999 2C4.67628 2 1.98999 4.68629 1.98999 8C1.98999 11.3137 4.67628 14 7.98999 14Z" stroke="#999999" stroke-linecap="round" stroke-linejoin="round"/>
<path d="M7.98999 11.3333V11.34" stroke="#999999" stroke-linecap="round" stroke-linejoin="round"/>
<path d="M7.98999 9.00003C7.97772 8.78361 8.0361 8.56906 8.15634 8.3887C8.27658 8.20834 8.45217 8.07194 8.65666 8.00003C8.90724 7.9042 9.13216 7.75152 9.3137 7.554C9.49525 7.35648 9.62847 7.11951 9.70287 6.86175C9.77728 6.604 9.79083 6.33249 9.74248 6.06861C9.69412 5.80472 9.58517 5.55566 9.4242 5.34104C9.26323 5.12642 9.05464 4.95209 8.81485 4.83177C8.57506 4.71146 8.31062 4.64846 8.04234 4.64771C7.77406 4.64697 7.50927 4.70851 7.26882 4.82749C7.02837 4.94647 6.81881 5.11963 6.65666 5.33336" stroke="#999999" stroke-linecap="round" stroke-linejoin="round"/>
</g>
<defs>
<clipPath id="clip0_2_1005">
<rect width="16" height="16" fill="white" transform="translate(-0.0100098)"/>
</clipPath>
</defs>
</svg>
