<svg width="16" height="16" viewBox="0 0 16 16" fill="none" xmlns="http://www.w3.org/2000/svg">
<path d="M7.39559 5.08082L7.54199 5.22722H12.6452C12.9172 5.22722 13.2268 5.37282 13.486 5.63202C13.7444 5.89042 13.89 6.19842 13.89 6.47202V11.1272C13.89 11.38 13.7436 11.6872 13.474 11.9552C13.2044 12.2256 12.8956 12.3728 12.6444 12.3728H3.33559C3.05399 12.3728 2.74359 12.228 2.48919 11.9728C2.23479 11.7184 2.08999 11.4088 2.08999 11.1272V4.14562C2.08999 3.86482 2.23479 3.55682 2.48999 3.30242C2.74599 3.04562 3.05799 2.90002 3.33559 2.90002H5.21399L7.39479 5.08082H7.39559Z" stroke="#999999" stroke-linecap="round" stroke-linejoin="round"/>
</svg>
