<svg width="282" height="40" viewBox="0 0 282 40" fill="none" xmlns="http://www.w3.org/2000/svg">
<g clip-path="url(#clip0_2_975)">
<path d="M40.36 32.889C40.3208 32.8592 40.2753 32.8387 40.227 32.829C40.1786 32.8193 40.1287 32.8207 40.081 32.833C37.987 29.75 35.307 26.833 32.738 24L32.319 23.528C32.3179 23.4764 32.298 23.427 32.263 23.389C32.2141 23.3427 32.1577 23.3051 32.096 23.278L32.012 23.195L31.956 23.139C31.872 22.972 31.676 22.861 31.481 22.972C30.699 23.362 29.974 23.945 29.275 24.5C28.355 25.222 27.433 25.945 26.567 26.75C26.213 27.0645 25.8861 27.4084 25.59 27.778C25.45 27.972 25.562 28.139 25.73 28.222C25.115 28.833 24.5 29.445 23.887 30.083C23.8309 30.1435 23.8007 30.2235 23.803 30.306C23.803 30.389 23.859 30.472 23.914 30.5L25.004 31.333V31.361C26.539 32.889 29.248 34.972 32.124 37.222C32.542 37.556 32.989 37.889 33.408 38.222C33.603 38.445 33.798 38.695 33.966 38.917C34.05 39.027 34.246 39.056 34.357 38.972C34.413 39.028 34.497 39.083 34.553 39.139C34.6038 39.1699 34.6609 39.1891 34.72 39.195C34.7637 39.1973 34.8073 39.1883 34.8466 39.1688C34.8858 39.1494 34.9194 39.1202 34.944 39.084C34.9747 39.0332 34.9935 38.9761 34.999 38.917C35.028 38.917 35.027 38.945 35.055 38.945C35.1378 38.9472 35.2181 38.9171 35.279 38.861L40.361 33.333C40.3908 33.3042 40.4144 33.2697 40.4306 33.2316C40.4468 33.1934 40.4551 33.1524 40.4551 33.111C40.4551 33.0696 40.4468 33.0286 40.4306 32.9905C40.4144 32.9523 40.3898 32.9178 40.36 32.889ZM25.73 30.972C25.758 31.0252 25.7957 31.0726 25.841 31.112C26.427 31.612 27.041 32.112 27.684 32.667L25.115 30.722L24.864 30.556C24.808 30.528 24.752 30.472 24.696 30.445L24.501 30.278L24.557 30.222L24.612 30.167L24.724 30.056C25.59 29.195 27.07 27.75 27.824 27.028C27.014 27.833 25.394 30.195 25.729 30.972H25.73ZM34.497 37.862L32.375 36.25C31.5342 35.3815 30.6585 34.5475 29.75 33.75C30.895 34.611 31.872 35.361 32.012 35.5C33.129 36.472 33.072 36.306 33.827 36.945L34.748 37.611C34.679 37.7078 34.5941 37.7934 34.497 37.862ZM35.055 38.278L34.999 38.25C35.083 38.195 35.167 38.139 35.251 38.056L35.055 38.278ZM1.54902 5.75002C1.60402 6.11102 1.68902 6.47202 1.74402 6.80602C2.07902 8.63902 2.41402 10.306 3.02802 11.556L3.28002 12.5C3.36402 12.861 3.50302 13.306 3.64302 13.417C5.06702 14.667 7.24502 16.527 9.59002 18.306C9.64187 18.3465 9.70575 18.3685 9.77152 18.3685C9.83729 18.3685 9.90117 18.3465 9.95302 18.306C9.95302 18.306 9.95302 18.333 9.98102 18.333C10.0057 18.3604 10.0359 18.3821 10.0698 18.3966C10.1036 18.4111 10.1402 18.4181 10.177 18.417C10.2594 18.419 10.3394 18.3889 10.4 18.333C13.388 15.028 15.621 12.306 17.213 10.028C17.325 9.91702 17.353 9.75002 17.353 9.61102C17.464 9.50002 17.548 9.36102 17.66 9.27802C17.771 9.16702 17.771 8.97201 17.66 8.88801L17.632 8.86102C17.632 8.80602 17.604 8.72202 17.548 8.69402C16.85 8.02802 16.348 7.55602 15.817 7.05602C14.895 6.19402 13.946 5.30602 11.936 3.30602L11.908 3.27802C11.88 3.25002 11.852 3.22201 11.796 3.22201C11.238 3.02801 10.093 2.83301 8.66902 2.58301C6.54702 2.22301 3.67002 1.72302 1.07402 0.944015C1.07402 0.944015 0.906022 0.944015 0.878022 0.972015L0.795022 1.05602C0.767022 1.08302 0.739022 1.11102 0.571022 1.16602C0.599022 1.33302 0.599022 1.44402 0.655022 1.63902C0.655022 1.69402 0.767022 2.13902 0.767022 2.19402L1.54902 5.75002ZM17.045 9.02802L16.71 8.69402C16.794 8.80602 16.906 8.88902 17.045 9.02802ZM13.499 13.694L13.443 13.75C13.443 13.722 13.471 13.694 13.499 13.694ZM11.461 3.69402C11.629 3.86102 12.327 4.52802 12.494 4.66702C11.768 4.33302 9.95402 3.50001 9.11502 3.22201C9.95302 3.38901 11.098 3.55602 11.461 3.69402ZM1.88402 2.30602C2.30302 3.02802 2.63802 5.52802 2.97302 7.97202C2.77702 7.19402 2.63802 6.41702 2.47002 5.69402C2.21902 4.41702 1.96702 3.27802 1.63202 2.27802C1.68802 2.27802 1.77202 2.27802 1.88402 2.30602ZM1.71602 1.72202C1.60402 1.72202 1.49302 1.69402 1.40902 1.69402C1.40902 1.66702 1.40902 1.63902 1.38102 1.63902C1.52102 1.63902 1.60402 1.66702 1.71602 1.72202ZM0.627022 1.94402C0.627022 1.91702 0.627022 1.91702 0.627022 1.94402ZM39.913 1.33302C39.941 1.22302 39.355 0.723015 39.55 0.694015C39.97 0.667015 39.97 0.0280151 39.55 0.0280151C38.992 0.0560151 38.406 0.194015 37.875 0.278015C36.898 0.472015 35.893 0.667015 34.915 0.888015C32.71 1.36102 30.532 1.86101 28.354 2.44501C27.684 2.63901 26.93 2.77802 26.288 3.11102C26.064 3.22202 26.092 3.44401 26.204 3.58301C26.148 3.61101 26.12 3.61101 26.064 3.63901C25.869 3.66701 25.701 3.69501 25.506 3.72201C25.338 3.75001 25.254 3.88902 25.282 4.05602C25.282 4.08302 25.31 4.13902 25.31 4.16602C24.137 5.72202 22.825 7.36102 21.401 9.11102C20.005 10.722 18.525 12.417 17.045 14.167C12.326 19.667 6.99302 25.917 1.10202 31.417C1.07561 31.4421 1.05457 31.4722 1.04019 31.5057C1.02581 31.5391 1.0184 31.5751 1.0184 31.6115C1.0184 31.6479 1.02581 31.6839 1.04019 31.7174C1.05457 31.7508 1.07561 31.781 1.10202 31.806C1.13002 31.833 1.15802 31.861 1.18602 31.861C1.10202 31.945 1.01802 32.001 0.934022 32.083C0.878022 32.139 0.850022 32.194 0.850022 32.25C0.806375 32.2906 0.768971 32.3375 0.739022 32.389C0.627022 32.5 0.627022 32.694 0.767022 32.778C0.878022 32.888 1.07402 32.888 1.15702 32.75C1.18602 32.722 1.18602 32.694 1.21302 32.694C1.29523 32.6137 1.40559 32.5687 1.52052 32.5687C1.63545 32.5687 1.74582 32.6137 1.82802 32.694C2.16302 33.056 2.49802 33.417 2.80502 33.722L2.10702 33.139C1.99502 33.028 1.80002 33.056 1.71702 33.167C1.60402 33.277 1.63202 33.472 1.74402 33.556L9.17102 39.75C9.22702 39.806 9.28302 39.806 9.36702 39.806C9.45102 39.806 9.50702 39.778 9.56202 39.722L9.73002 39.556C9.75802 39.583 9.81302 39.583 9.84102 39.583C9.92502 39.583 9.98102 39.556 10.037 39.5C20.089 29.445 28.187 21.861 37.457 15.083C37.54 15.028 37.568 14.917 37.568 14.833C37.68 14.833 37.764 14.75 37.819 14.639C39.523 9.44502 39.858 4.83301 39.969 2.55602V2.52802C39.969 2.50002 39.997 2.47201 39.997 2.44501C40.025 2.38901 40.025 2.36102 40.025 2.36102C40.1009 2.0154 40.0609 1.65448 39.913 1.33302ZM21.932 9.50002C22.378 9.00002 22.825 8.47202 23.272 8.00002C20.396 11.778 15.622 17.583 8.86402 24.5C13.471 19.417 18.106 14.167 21.932 9.50002ZM9.11502 38.972C9.08802 38.944 9.08802 38.944 9.11502 38.944V38.972ZM13.275 35.389C13.499 35.139 13.723 34.917 13.974 34.667C13.974 34.667 13.974 34.694 14.002 34.694C13.75 34.917 13.527 35.139 13.276 35.389H13.275ZM14.421 34.278C14.561 34.138 14.7 33.944 14.867 33.778L14.895 33.75C16.543 32.056 18.246 30.361 19.977 28.639L20.005 28.611C20.424 28.278 20.926 27.917 21.373 27.583C19.0274 29.7851 16.7098 32.0169 14.421 34.278ZM25.254 6.47202C24.333 7.66702 23.3 9.25002 22.434 10.5C19.698 14.444 10.902 24.083 10.707 24.25C8.0335 26.8039 5.35283 29.3502 2.66502 31.889L2.49802 32.056C2.35802 31.889 2.35802 31.639 2.52602 31.5C14.95 19.861 22.49 10.167 25.534 5.91702C25.45 6.11102 25.394 6.27702 25.254 6.47202ZM30.084 12.167C28.968 11.527 28.438 10.527 28.744 9.55602L28.828 9.22202C28.856 9.13902 28.912 9.02801 28.968 8.94501C29.275 8.44501 29.722 8.02802 30.225 7.77802C30.252 7.77802 30.28 7.77802 30.308 7.75002C30.28 7.69402 30.28 7.61102 30.28 7.52802C30.308 7.36102 30.42 7.25002 30.615 7.25002C30.95 7.25002 31.984 7.55602 32.375 7.88902C32.486 7.97202 32.598 8.08302 32.71 8.19402C32.85 8.36102 33.073 8.63902 33.184 8.86102C33.24 8.88902 33.296 9.16702 33.38 9.30602C33.436 9.52802 33.491 9.77802 33.464 10C33.436 10.028 33.464 10.194 33.436 10.194C33.3871 10.558 33.2635 10.908 33.073 11.222C33.045 11.25 33.045 11.278 33.017 11.306L32.989 11.333C32.849 11.556 32.654 11.75 32.459 11.889C31.816 12.333 31.09 12.472 30.364 12.278C30.364 12.278 30.169 12.194 30.084 12.167ZM38.238 11.333C37.9849 12.4007 37.687 13.4573 37.345 14.5C37.345 14.528 37.317 14.583 37.345 14.611C37.289 14.611 37.261 14.639 37.205 14.667C34.999 16.277 32.849 17.972 30.699 19.695C32.542 18.055 34.385 16.389 36.312 14.75C36.87 14.25 37.261 13.611 37.372 12.889L37.652 11.222V11.167C37.792 10.833 38.322 10.972 38.238 11.333Z" fill="#6965DB"/>
</g>
<g clip-path="url(#clip1_2_975)">
<path d="M146.449 23.6009L144.81 20.2513C144.154 18.9125 143.523 17.5584 142.917 16.1941C142.79 15.7614 142.652 15.3338 142.515 14.9062C142.102 13.5979 141.665 12.2998 141.217 11.0017C140.239 8.18654 139.232 5.36124 138 2.64794C137.633 1.84362 137.256 0.896766 136.661 0.209532C136.646 0.122991 136.58 0.0619053 136.488 0.0262709C136.471 0.0147141 136.452 0.00691716 136.432 0.00340483C136.411 -0.000107503 136.391 0.000745738 136.371 0.00590796C136.34 0.000817337 136.31 0.00590711 136.279 0.0109977C135.902 0.0415415 135.516 0.204442 135.164 0.321526C134.034 0.713504 132.925 1.15639 131.79 1.53309C131.774 1.49237 131.759 1.45164 131.744 1.40583C131.667 1.19202 131.326 1.28365 131.403 1.50255C131.418 1.54837 131.438 1.59927 131.454 1.64509L131.362 1.67563C131.179 1.73163 131.219 1.98107 131.362 2.02179C131.454 2.62249 131.683 3.22318 131.861 3.79842C131.876 3.84424 131.891 3.88496 131.902 3.93078C131.861 4.04786 131.815 4.16495 131.779 4.25658C131.591 4.75546 131.377 5.24416 131.164 5.73286C130.517 7.20405 129.83 8.65997 129.138 10.1108C127.519 13.5062 125.859 16.8864 124.231 20.2768C123.681 21.4222 123.111 22.5675 122.627 23.7435C122.561 23.9064 122.749 23.998 122.882 23.9318C123.564 24.6089 124.327 25.2045 125.121 25.7492C125.452 25.9732 125.788 26.1921 126.145 26.3804C126.348 26.4924 126.582 26.6248 126.822 26.635C126.944 26.64 127 26.5382 126.99 26.4466C127.046 26.3957 127.096 26.3397 127.132 26.3041C127.341 26.0953 127.544 25.8764 127.743 25.6626C128.176 25.1943 128.603 24.7107 129.015 24.2169C132.227 23.0257 135.429 22.0228 138.539 21.244C139.629 23.942 140.285 25.5354 140.56 26.1208C140.84 26.6553 141.145 27.0778 141.486 27.4036C142.158 27.6887 145.029 27.3884 146.185 26.4059C146.628 25.7543 146.79 25.0467 146.658 24.2933C146.612 24.0387 146.546 23.8097 146.455 23.6162L146.449 23.6009ZM136.223 0.382613C136.442 0.774591 136.646 1.17675 136.839 1.57891C136.564 1.34983 136.193 1.07494 135.785 0.820407C135.572 0.698232 135.48 0.642235 135.307 0.647325C135.526 0.570966 135.74 0.499698 135.964 0.43861C136.05 0.413157 136.137 0.397885 136.223 0.382613ZM123.06 23.6264C123.457 22.6846 123.91 21.7632 124.353 20.8418C125.121 19.2332 125.905 17.6296 126.684 16.021C127.336 14.6822 127.987 13.3433 128.634 11.9994L128.074 13.3535C127.061 15.7919 125.544 18.9023 123.554 22.593C123.335 22.9799 123.218 23.3617 123.192 23.7333C123.167 23.7078 123.141 23.6875 123.116 23.662C123.101 23.6456 123.081 23.6333 123.06 23.6264ZM126.236 26.0241C126.022 25.907 125.819 25.7797 125.615 25.6474C126.15 25.8764 126.633 26.0139 126.913 26.0139L126.806 26.1208C126.781 26.1463 126.75 26.1717 126.725 26.1972C126.72 26.2023 126.704 26.2124 126.699 26.2175C126.699 26.2073 126.715 26.2073 126.725 26.2023C126.709 26.2113 126.695 26.2234 126.684 26.2379C126.659 26.2277 126.633 26.2226 126.613 26.2124C126.486 26.1615 126.363 26.0903 126.241 26.0241H126.236ZM134.243 11.0424C134.778 12.6459 135.312 14.2546 135.821 15.8683C135.994 16.4079 136.172 16.9526 136.335 17.5024C134.554 17.8231 132.797 18.2456 131.108 18.775C132.37 15.7054 133.418 13.1193 134.243 11.0424ZM136.681 17.4413C136.564 17.0391 136.432 16.637 136.31 16.2399C135.908 14.9469 135.48 13.6539 135.058 12.3659L134.447 10.5333C134.457 10.513 134.467 10.4875 134.472 10.4671C135.287 12.7325 136.142 15.0487 137.022 17.3751L136.681 17.4362V17.4413ZM139.649 8.14072L139.573 7.86583C139.323 7.03097 139.048 6.19611 138.758 5.37142C138.875 5.66668 138.997 5.96703 139.114 6.26228C139.909 8.3138 140.647 10.3857 141.349 12.4728C141.181 12.0554 141.008 11.638 140.85 11.2206L139.654 8.14072H139.649ZM177.887 14.056C177.82 8.74651 177.775 5.14744 177.764 3.89005C177.642 3.07555 177.871 2.42395 177.434 2.03198C177.362 1.9658 177.271 1.91489 177.169 1.86908H177.184C177.413 1.86908 177.413 1.51782 177.184 1.51273C176.293 1.49746 175.403 1.49237 174.512 1.44146C173.809 1.40074 173.107 1.33456 172.399 1.28365C172.364 1.28365 172.338 1.28874 172.313 1.30402C172.206 1.26838 172.074 1.31929 172.084 1.46183L172.099 1.6909C172.043 1.76217 172.002 1.84362 171.987 1.94544C171.88 2.58685 171.824 8.90431 171.804 13.9542C171.641 16.9017 171.463 19.8441 171.31 22.7915C171.264 23.6722 171.162 24.5936 171.203 25.4896C171.005 25.4997 171.01 25.8154 171.224 25.8408V25.9019C171.249 26.1259 171.6 26.131 171.58 25.9019V25.8714C172.14 25.9172 172.7 25.9783 173.26 26.0241C173.84 26.1208 174.502 26.1259 174.934 26.1106C175.815 26.0852 176.421 26.0852 176.869 25.9223C177.098 25.8968 177.327 25.8663 177.556 25.8357C177.78 25.8052 177.683 25.4641 177.459 25.4947H177.454C177.576 25.3318 177.683 25.1281 177.77 24.8583C178.106 23.9216 177.978 21.6207 177.943 19.0907L177.876 14.0509L177.887 14.056ZM171.646 23.3057C171.692 22.3334 171.748 21.3662 171.804 20.3989C171.834 23.1377 171.804 23.5246 171.799 23.7129C171.773 24.5529 171.692 25.1434 172.165 25.5761C171.967 25.5557 171.768 25.5405 171.57 25.5252C171.539 24.7921 171.615 24.0336 171.651 23.3108L171.646 23.3057ZM278.948 1.06476C277.899 0.937491 277.334 0.805135 277.034 0.75932C277.039 0.744804 277.046 0.731075 277.054 0.718594C277.166 0.52006 276.856 0.336798 276.749 0.540423C276.464 1.05967 276.291 1.65527 276.108 2.21524C275.797 3.17228 275.512 4.13949 275.232 5.10671C274.911 6.22156 274.601 7.34149 274.301 8.46143C273.888 9.49483 273.45 10.5231 272.972 11.5311C272.107 9.67809 271.389 8.45634 270.921 7.67747C269.77 5.77358 269.47 4.88781 269.103 4.58238L269.261 4.53656C269.48 4.47547 269.388 4.12931 269.165 4.19549C268.625 4.34821 268.085 4.50093 267.551 4.6791C267.078 4.842 266.609 5.03035 266.146 5.2238C266.08 5.24925 266.049 5.30525 266.034 5.36124C266.014 5.37142 265.993 5.3867 265.978 5.39688C265.958 5.36633 265.942 5.33579 265.922 5.30525C265.897 5.26517 265.858 5.23634 265.812 5.22493C265.767 5.21351 265.718 5.22041 265.678 5.24416C265.596 5.28997 265.566 5.40706 265.612 5.48851L265.779 5.7634C265.779 5.80922 265.79 5.85503 265.81 5.90594C266.07 6.49645 266.207 6.60845 266.177 6.65426C264.945 8.40544 263.423 10.6555 263.021 11.2867C262.374 12.2896 261.997 12.8852 261.773 13.2415L261.31 9.90208L261.091 7.81492C260.995 6.87316 260.903 6.17065 260.822 5.7125C260.725 5.15253 260.669 4.61801 260.593 4.10386C260.491 3.41153 260.445 3.05519 260.353 2.87193H260.374C260.603 2.88211 260.603 2.52577 260.374 2.51558C258.628 2.43413 256.907 2.9941 255.197 3.269C255.075 3.157 254.825 3.24863 254.902 3.4319C255.024 3.73224 255.07 4.06822 255.121 4.38384C255.207 4.92345 255.268 5.46815 255.324 6.01284C255.487 7.58584 255.594 9.16903 255.701 10.7471C255.925 14.1833 256.093 17.6245 256.296 21.0607C256.352 22.0534 256.363 23.0766 256.531 24.0591C256.556 24.2118 256.719 24.2169 256.811 24.1304C257.187 25.0009 258.271 24.7769 259.931 24.7769C260.613 24.7769 261.147 24.7972 261.453 24.7209C261.463 24.8838 261.697 24.9907 261.773 24.8125C263.611 20.6077 265.545 16.4333 267.907 12.4932C267.923 12.4678 267.928 12.4423 267.933 12.4168C268.085 12.7885 268.258 13.155 268.411 13.5164C268.905 14.6669 269.414 15.8174 269.928 16.9577C271.078 19.5183 272.239 22.0839 273.537 24.5732C273.776 25.0314 274.015 25.4845 274.285 25.9223C274.387 26.0852 274.489 26.2633 274.621 26.411C274.53 26.5382 274.621 26.7571 274.794 26.6859C275.257 26.4924 275.721 26.3041 276.199 26.1412C276.729 25.963 277.273 25.8103 277.813 25.6576C278.011 25.6016 277.955 25.3216 277.777 25.3114C278.093 25.1078 278.261 24.8227 278.22 24.3391C278.067 22.6388 278.587 20.5364 278.658 20.0019L279.747 14.1833C280.638 8.71596 281.34 5.26961 281.391 3.56425C281.401 3.31481 281.432 2.11852 281.457 1.91489C281.544 1.27856 281.702 1.40583 278.933 1.07494L278.948 1.06476ZM255.436 3.95114C255.416 3.82897 255.39 3.70679 255.36 3.58971L255.792 3.51335C255.619 3.63552 255.507 3.78315 255.436 3.95114ZM256.429 16.7388C256.246 13.3637 256.072 9.98862 255.757 6.62371C255.757 6.6339 255.757 6.64408 255.762 6.65426C255.91 7.49421 255.986 7.91164 256.047 8.12545C256.556 12.4321 256.811 16.3417 256.79 19.7321C256.76 20.236 256.739 20.7502 256.734 21.2694C256.729 21.4171 256.719 21.6156 256.709 21.8396C256.704 21.7072 256.693 21.5698 256.688 21.4425C256.592 19.8746 256.51 18.3067 256.424 16.7439L256.429 16.7388ZM274.957 26.2379C274.901 26.1819 274.835 26.0903 274.769 25.9884C274.947 26.0953 275.146 26.1208 275.364 26.0699C275.227 26.1259 275.095 26.1819 274.957 26.2328V26.2379ZM274.504 9.07231C274.565 8.85341 274.621 8.63451 274.682 8.41562C275.044 7.51458 275.4 6.60844 275.741 5.70231C275.665 6.04848 275.609 6.32337 275.583 6.49136C275.329 7.988 274.499 10.3551 273.761 13.2924C273.685 13.1143 273.613 12.9565 273.542 12.7834C273.853 11.5413 274.178 10.3042 274.509 9.06722L274.504 9.07231ZM276.316 2.71921C276.388 2.49522 276.459 2.26614 276.53 2.03707C276.464 2.39341 276.393 2.75484 276.316 3.11119C276.097 3.71697 275.879 4.32275 275.649 4.92854C275.863 4.1904 276.082 3.45226 276.316 2.71921ZM273.659 10.8897C273.603 11.1136 273.542 11.3325 273.481 11.5565C273.42 11.7907 273.364 12.0249 273.303 12.259C273.252 12.147 273.206 12.0554 273.16 11.9485C273.333 11.5973 273.496 11.246 273.654 10.8897H273.659ZM267.734 12.2234C267.765 12.1725 267.795 12.1267 267.821 12.0809C267.846 12.147 267.866 12.2132 267.892 12.2794C267.871 12.2594 267.846 12.244 267.819 12.2343C267.792 12.2247 267.763 12.2209 267.734 12.2234ZM268.905 13.7404C268.62 13.0786 268.269 12.4016 268.065 11.7092C268.065 11.7092 268.07 11.6991 268.075 11.6991C268.106 11.7398 268.849 13.1906 268.905 13.267C269.276 13.8422 270.625 16.8508 271.791 19.5081C272.402 20.8978 272.85 22.1399 273.232 23.1631C272.916 22.5268 272.605 21.8854 272.3 21.2389C271.124 18.7598 269.994 16.2603 268.905 13.7404ZM119.599 17.9554C119.059 16.8457 119.023 16.1992 118.357 16.4639C117.583 16.7541 116.86 17.1257 116.066 17.5329C115.353 17.8994 114.702 18.266 114.071 18.6121C114.076 18.4849 113.948 18.3576 113.811 18.4391C111.368 19.9306 107.494 20.8316 105.015 19.1059C104.007 18.2049 103.325 16.9933 102.994 16.1635C102.847 15.6799 102.745 15.176 102.674 14.672C102.602 12.9717 103.478 11.3478 104.659 10.0293C105.066 9.62718 105.514 9.26066 106.013 8.95013C107.896 7.77929 110.197 7.38731 112.381 7.67239C113.76 7.85056 115.089 8.30362 116.305 8.97049C116.504 9.08249 116.687 8.77196 116.483 8.66506C116.392 8.61415 116.295 8.57343 116.203 8.52761C116.488 8.66506 116.728 8.6956 116.972 8.62433L116.728 8.82286C116.651 8.87886 116.611 8.97558 116.661 9.06722C116.707 9.14358 116.829 9.18939 116.906 9.13339C117.568 8.6396 118.158 8.06945 118.662 7.41785C118.85 7.27023 118.988 7.11242 118.993 6.92406V6.91388C119.034 6.74589 118.978 6.55754 118.886 6.3641C118.728 5.92121 118.387 5.34088 117.771 4.70455C116.534 3.42172 115.842 2.94829 114.88 2.53595C114.3 2.28651 113.292 1.99634 112.63 1.9098C110.96 1.69599 107.214 1.29383 103.376 4.00205C99.4362 6.78153 97.2983 10.2635 97.1506 14.4938C97.1099 15.5425 97.171 16.5199 97.3237 17.4006C97.7004 19.5284 98.6319 21.4731 100.093 23.1733C102.261 25.7135 105.061 27.0015 108.41 27.0015C110.879 27.0015 113.343 26.1004 115.99 24.6496C116.107 24.5885 116.219 24.5325 116.336 24.4714C117.45 23.9115 118.56 23.3362 119.624 22.6897C119.873 22.537 120.148 22.3792 120.388 22.1908C121.136 21.748 120.953 21.6207 120.637 20.6891C120.438 20.1088 120.25 19.3146 119.588 17.9605L119.599 17.9554ZM110.752 6.87825C112.304 6.66444 113.964 7.28041 115.516 8.07455C115.776 8.27308 115.995 8.42071 116.193 8.51743C113.338 7.06151 109.718 6.79171 106.807 8.11527C107.85 7.43821 108.965 7.1226 110.747 6.87316L110.752 6.87825ZM204.987 10.6453C204.783 9.52537 204.402 8.44107 203.781 7.47894C203.022 6.29792 201.958 5.34597 200.772 4.60783C197.632 2.6683 193.773 2.00652 190.169 1.54837C188.525 1.33965 186.876 1.19711 185.222 1.08003L184.514 1.01894C184.081 0.983306 183.74 0.968035 183.471 0.968035C182.921 0.937492 182.366 0.906949 181.816 0.881496C181.776 0.881496 181.745 0.891676 181.72 0.906948C181.669 0.932401 181.628 0.978217 181.638 1.05967C181.776 2.35778 181.633 3.66607 181.17 4.88781C181.093 5.08126 181.373 5.17289 181.485 5.03035C182.157 5.3307 182.85 5.56487 183.562 5.72777C183.562 7.14296 183.491 9.58646 183.394 12.2998C183.394 12.2998 183.394 12.3099 183.389 12.315C183.079 14.1782 182.987 16.0923 182.88 17.9758C182.763 20.0171 182.661 22.0636 182.656 24.11C182.656 24.4358 182.656 24.7616 182.671 25.0925C182.682 25.2503 182.671 25.4387 182.748 25.5812C182.778 25.6372 182.819 25.6626 182.87 25.6677C182.768 25.7543 182.763 25.9426 182.926 25.9681C184.876 26.3092 186.886 26.3295 188.871 26.0953C190.042 25.9986 191.35 25.7645 192.765 25.3012C193.707 25.0263 194.633 24.7005 195.529 24.3289C199.194 22.7915 202.813 20.2208 204.361 16.4232C204.748 15.4763 204.956 14.4887 205.028 13.4961C205.18 12.5136 205.17 11.5514 204.982 10.6555L204.987 10.6453ZM195.153 2.79557C198.074 3.51335 201.23 4.66892 203.119 7.14805C203.246 7.31095 203.358 7.47894 203.47 7.65202C202.299 6.21647 200.579 4.75546 196.914 3.46244C195.814 3.07555 194.7 2.73448 193.534 2.43413C194.074 2.54104 194.618 2.66321 195.153 2.79557ZM182.01 1.24802C182.076 1.24802 182.147 1.25311 182.213 1.2582C182.142 1.30911 182.081 1.37529 182.025 1.45164C182.025 1.38547 182.015 1.31929 182.01 1.24802ZM199.734 12.5339C199.352 14.1069 197.927 15.4152 196.741 16.3926C195.036 17.7976 193.071 18.9532 190.999 19.7219C190.322 19.9713 189.62 20.18 188.902 20.3073C188.932 19.6048 188.943 18.9023 188.938 18.2049C188.927 16.2806 188.856 14.3564 188.729 12.4372C188.683 11.7398 188.637 11.0424 188.54 10.3501C188.54 10.3195 188.525 10.2941 188.51 10.2737C188.556 8.61924 188.571 7.13787 188.525 6.14011C192.017 6.67462 193.9 7.24477 195.682 7.98291C198.492 9.14358 200.055 10.7522 199.739 12.5441L199.734 12.5339ZM188.535 20.7553C188.474 20.7553 188.418 20.7451 188.362 20.74L188.535 20.7247V20.7553ZM188.184 20.3989C188.184 18.8056 188.317 15.8988 188.423 13.0124C188.454 13.6233 188.479 14.2393 188.5 14.8451C188.576 16.6777 188.627 18.5256 188.546 20.3582C188.423 20.3735 188.301 20.3837 188.184 20.3938V20.3989ZM181.908 4.64855C182.096 4.96926 182.931 5.16271 183.552 5.28488V5.36124C182.885 5.20343 182.234 4.98963 181.603 4.70455C181.664 4.52129 181.72 4.33803 181.77 4.14967C181.811 4.39402 181.862 4.57729 181.908 4.64855ZM188.882 20.7604V20.6687C190.617 20.3837 192.297 19.6404 193.814 18.7954C194.99 18.1438 196.15 17.3802 197.189 16.4893C194.801 18.7954 191.279 20.684 188.876 20.7553L188.882 20.7604ZM201.134 20.3786C200.09 21.3611 198.909 22.1908 197.657 22.8984C199.031 21.9923 200.467 20.8469 201.943 19.4012C202.36 18.9837 202.737 18.5409 203.078 18.0827C202.528 18.9227 201.867 19.6913 201.139 20.3786H201.134ZM74.4177 20.5567C74.0156 19.2994 73.3488 16.9322 72.8397 17.0595C72.743 17.0544 71.7759 17.4515 70.7629 17.8434C69.2053 18.4441 67.7546 18.9277 65.6269 19.279C64.2322 19.4928 62.6389 19.7932 60.2262 19.8186C60.2465 18.1183 60.2516 16.7591 60.2516 15.7512C64.3085 15.4203 66.5279 14.6771 68.5843 13.944C69.1493 13.7455 69.9536 13.4299 69.923 13.0277C69.8823 12.8495 69.6431 12.3201 69.3275 11.6991C69.0882 11.1086 68.8286 10.5231 68.508 9.97844C68.2942 9.617 67.9786 9.11812 67.5612 8.92977C67.5052 8.88905 67.4492 8.86359 67.4136 8.86868C67.4034 8.86868 67.3932 8.86868 67.3779 8.87377C67.2812 8.85341 67.1794 8.84832 67.0725 8.86868C66.986 8.88395 66.9504 8.94504 66.9453 9.01122C66.9249 9.0214 66.8995 9.03158 66.874 9.03667C64.6699 9.79009 62.3692 10.2228 60.1346 10.8744C60.0934 9.48424 60.0408 8.09445 59.9767 6.70517C62.2724 6.2012 64.4969 6.00266 66.65 5.77867C68.5232 5.58523 69.8467 5.83976 70.4524 5.95175C70.7527 6.00775 70.9105 6.0332 71.0429 6.04339H71.0938C71.0429 6.23174 71.3178 6.37937 71.4094 6.18592C71.4196 6.16556 71.4247 6.1452 71.4348 6.11974C71.5112 6.22156 71.7046 6.23174 71.7504 6.06884C71.837 5.77358 71.8472 5.45287 71.8573 5.14744V4.96417C71.8726 4.88781 71.8828 4.81146 71.893 4.7351C72.1576 3.47771 72.0609 2.14397 71.5672 0.947672C71.5112 0.810225 71.3432 0.805135 71.2618 0.876404C71.2211 0.769501 71.1854 0.662598 71.1396 0.560786C71.0429 0.35207 70.7375 0.535332 70.8342 0.738957C70.8495 0.774591 70.8596 0.815317 70.88 0.850951C70.3812 0.637145 69.7856 0.576057 69.2664 0.530241C68.1618 0.43352 67.042 0.458973 65.9374 0.530241C63.036 0.708413 60.1345 1.19202 57.3298 1.95053C56.2711 2.2356 55.2276 2.57158 54.2044 2.96865C51.8935 3.50317 52.2752 3.73733 53.0999 6.05866C53.1915 6.31828 53.334 6.91388 53.3747 7.04624C53.7921 8.30362 53.9245 8.13054 54.9527 8.13054C55.9809 8.13054 54.9527 8.15599 54.9527 8.17127H55.2174C54.9731 9.52537 54.9578 10.9457 54.9018 12.3099C54.8254 14.0815 54.7898 15.853 54.7593 17.6296C54.7593 17.8384 54.7542 18.0471 54.7491 18.2558C54.6677 18.4034 54.5811 18.546 54.4895 18.6885C54.464 18.8819 54.4437 19.0805 54.4182 19.2892C54.2044 21.0811 54.1179 22.5879 54.1535 23.7689V23.942C54.1637 24.1813 54.179 24.3289 54.1841 24.3849C54.2655 25.1841 54.0517 26.1513 54.8713 26.3142C55.6908 26.4771 56.6528 26.5942 57.34 26.5942C57.396 26.5942 57.452 26.584 57.508 26.584C58.4191 26.7062 59.3761 26.6095 60.2822 26.523C61.7329 26.3804 63.1785 26.1666 64.6139 25.9172C66.1563 25.6474 67.6935 25.3368 69.2155 24.9703C70.4372 24.6751 71.669 24.3645 72.8448 23.9217C73.1044 23.8249 73.7254 23.6315 74.097 23.3413C75.0184 22.9952 75.2067 22.8323 74.8962 21.9821C74.7791 21.6665 74.6519 21.2236 74.433 20.5669L74.4177 20.5567ZM68.7574 0.850951C69.2104 0.876404 69.7398 0.891676 70.2285 1.00367C70.0605 1.00367 69.8823 0.993489 69.6889 0.988398C65.4742 0.856042 62.1146 1.37019 57.4876 2.26614C58.7144 1.94034 59.9564 1.67563 61.1933 1.45673C63.6722 1.01894 66.2377 0.718595 68.7574 0.850951ZM55.253 12.1165C55.2683 12.987 55.2734 13.8626 55.253 14.7331C55.2327 15.3796 55.197 16.0312 55.1309 16.6777C55.1309 16.3061 55.141 15.9345 55.1512 15.5629C55.1767 14.4124 55.2123 13.267 55.2632 12.1165H55.253ZM58.6787 26.2939C58.7806 26.243 58.8824 26.187 58.974 26.1259C59.9004 26.0394 60.9184 26.0037 61.9976 25.9528C61.5598 26.0088 61.122 26.075 60.6843 26.1208C60.0378 26.1921 59.3557 26.2786 58.6838 26.2939H58.6787ZM251.211 17.146C249.42 12.8801 247.612 8.61924 245.867 4.33294C245.546 3.54898 245.23 2.75993 244.92 1.9658C244.762 1.55855 244.589 1.1513 244.477 0.728775C244.457 0.642235 244.39 0.6066 244.319 0.60151C244.37 0.499697 244.319 0.341889 244.172 0.331707C243.362 0.290983 242.553 0.219714 241.738 0.204442C240.741 0.18917 239.748 0.270621 238.766 0.418249C238.608 0.443702 238.608 0.611691 238.7 0.703323C238.684 0.733866 238.674 0.774592 238.679 0.815317C238.796 1.59927 239 2.37305 239.27 3.12137C239.336 3.29954 239.407 3.47771 239.478 3.66097L238.114 6.80698C238.058 6.82225 238.012 6.85279 237.987 6.91897C237.646 7.88619 237.213 8.81778 236.796 9.74936C236.146 11.1889 235.485 12.6228 234.811 14.0509C233.467 16.922 232.092 19.7779 230.784 22.6694C230.56 23.1631 230.336 23.6569 230.128 24.1609C230.026 24.4053 229.888 24.67 229.848 24.9347V24.9601C229.837 25.0212 229.858 25.0925 229.929 25.1332C230.535 25.5048 231.156 25.851 231.792 26.1768C232.403 26.4924 233.039 26.8131 233.706 26.9964C233.925 27.0575 234.022 26.7164 233.803 26.6553C233.228 26.4975 232.683 26.2328 232.154 25.963C232.708 26.1463 233.222 26.3142 233.553 26.4364C234.989 26.9506 234.765 26.9964 235.742 24.5274C236.811 23.9726 237.951 23.5297 239.066 23.1072C241.28 22.2723 243.545 21.5647 245.821 20.9233C246.238 21.9465 246.722 22.9443 247.205 23.9369C247.383 24.3594 247.521 24.6751 247.607 24.8634C247.719 25.0772 247.836 25.2707 247.959 25.4488C248.045 25.6168 248.127 25.7899 248.213 25.9579C248.427 26.3651 248.641 26.7877 248.926 27.1542C249.043 27.3018 249.231 27.1542 249.206 26.9964C249.985 26.9862 250.763 26.9608 251.537 26.8589C252.005 26.7979 252.463 26.696 252.917 26.584C253.624 26.4466 254.876 26.019 254.82 25.8612C254.479 24.8634 254.031 23.8911 253.629 22.9188C252.83 20.9945 252.021 19.0703 251.211 17.1511V17.146ZM245.281 3.82896C246.065 5.76849 246.869 7.69784 247.674 9.63228C249.17 13.2212 250.682 16.805 252.189 20.3888L251.649 19.2841C250.27 16.4792 249.002 13.5877 247.877 10.6962L244.492 1.9658C244.161 1.22766 244.212 0.850951 244.019 0.67787C244.065 0.67787 244.11 0.682961 244.161 0.688051C244.148 0.706946 244.139 0.728785 244.135 0.751787C244.132 0.774789 244.134 0.798302 244.141 0.820407C244.406 1.84871 244.889 2.84647 245.286 3.82896H245.281ZM241.932 10.742C241.957 10.6657 241.978 10.5842 242.003 10.5079C242.721 12.5034 243.469 14.5295 244.238 16.5504C242.599 16.8151 240.99 17.1868 239.422 17.6398C239.702 17.0188 239.957 16.3875 240.201 15.7563C240.832 14.1069 241.408 12.4321 241.927 10.742H241.932ZM241.815 0.560786C241.998 0.560786 242.186 0.576057 242.37 0.586239C241.275 0.637145 239.733 0.75423 239.382 0.962945C239.259 1.0393 239.173 1.11566 239.112 1.19202C239.081 1.04439 239.046 0.896767 239.02 0.744049C239.947 0.611692 240.878 0.545513 241.815 0.565876V0.560786ZM241.769 10.0904C241.52 10.9406 241.234 11.7856 240.955 12.6205C240.41 14.2444 239.84 15.8683 239.137 17.4362C239.091 17.5431 239.041 17.6551 238.99 17.7671C238.862 17.8027 238.735 17.8384 238.613 17.8791C239.901 14.7433 240.96 12.1318 241.769 10.0904ZM238.542 22.8984C241.072 21.6869 243.311 20.8113 245.678 20.2157L245.811 20.5415C243.367 21.2287 240.909 21.9669 238.542 22.8984ZM248.809 26.3397C248.977 26.4568 249.155 26.5535 249.338 26.6248H249.17C249.109 26.6248 249.063 26.6553 249.038 26.691C248.961 26.5739 248.88 26.4619 248.809 26.3346V26.3397ZM94.4783 20.3582C92.6712 17.9453 91.078 15.7207 89.7393 13.7455C94.4223 5.9823 94.855 4.6791 95.0077 4.38893C95.0942 4.21585 95.5625 3.23336 95.3334 3.10101C94.7582 2.77011 94.8091 2.77012 93.8216 2.23051C93.2159 1.89962 92.2742 1.41092 91.5158 1.1513C90.6453 0.850951 90.8846 0.968036 89.9887 2.5614C89.9582 2.61231 89.9327 2.66321 89.9022 2.71412C89.5204 3.23336 89.1488 3.7577 88.7823 4.28712C87.8254 5.66668 86.8837 7.06151 85.886 8.41052C84.0128 5.91103 82.3839 3.95114 81.0452 2.59194C80.9688 2.51558 80.8925 2.44432 80.811 2.37814C80.1646 1.72654 77.1257 4.17513 76.7745 5.2187C76.7287 5.26452 76.6778 5.30015 76.632 5.34597C76.4945 5.47833 76.6472 5.67177 76.7999 5.64123C76.8966 5.97212 77.0544 6.29792 77.2784 6.61354C79.2381 9.18939 80.9383 11.582 82.3381 13.7404C81.712 15.0691 80.7805 16.2857 79.961 17.4973L78.8004 19.1925C78.5459 19.5284 78.327 19.8186 78.1437 20.0528C77.8027 20.5262 77.0799 21.3814 76.973 22.0228C76.7134 22.4555 76.3825 22.9595 76.3164 23.4635C76.2858 23.6875 76.6269 23.7842 76.6574 23.5602C76.6625 23.5195 76.6778 23.4839 76.6879 23.4482C77.3802 23.998 78.0928 24.5223 78.8208 25.0314C79.4825 25.4947 80.1544 25.9732 80.8772 26.3346C80.9841 26.3855 81.0808 26.3346 81.1215 26.2481C81.2437 26.2837 81.3659 26.3193 81.488 26.3499C81.712 26.4008 81.8036 26.0597 81.5847 26.0088C80.5565 25.7645 79.6657 25.2096 78.9226 24.4714C78.6833 24.2373 78.4644 23.9827 78.2506 23.7282C79.1363 24.4154 80.3885 25.1994 81.2488 25.8357C81.9563 26.3601 82.6995 24.6802 83.3969 23.6977C84.3436 22.3537 85.4126 20.7146 86.2067 19.4775L91.4954 26.864C91.8365 27.2764 92.0757 27.48 92.2946 27.5564C92.2691 27.6785 92.3557 27.816 92.5033 27.76C93.2821 27.4647 94.0558 27.1542 94.8142 26.808C95.5879 26.4568 96.3718 26.0699 97.0336 25.5354C97.0524 25.5222 97.0678 25.5047 97.0785 25.4843C97.0891 25.4639 97.0947 25.4413 97.0947 25.4183C97.9396 24.8583 97.507 24.5325 96.3769 22.9188C95.8017 22.1145 95.5065 21.7174 94.4935 20.3684L94.4783 20.3582ZM95.705 23.6875C95.9901 24.2729 96.3108 24.9703 96.27 25.627C96.2395 25.6474 96.2089 25.6626 96.1835 25.6779C96.1682 25.2299 95.9035 24.3238 95.705 23.6875ZM87.3011 7.02587C88.2478 5.67686 89.159 4.30239 90.1363 2.97883C90.3399 2.69885 90.5486 2.40359 90.7777 2.13379C90.8744 2.04216 90.9711 1.9658 91.0627 1.90471C91.1544 1.91998 91.246 1.94544 91.3427 1.97089L87.2451 7.11751L87.3061 7.02587H87.3011ZM77.2377 22.257C77.6398 21.5596 78.0827 20.8876 78.5306 20.2208C79.1363 19.3095 79.7523 18.4085 80.3682 17.5075C80.3478 17.5533 80.3224 17.594 80.302 17.6398C80.2511 17.7518 80.3173 17.8485 80.4038 17.8893C79.1465 19.6303 77.9147 21.3153 77.1461 22.6134C77.253 22.7355 77.3497 22.8577 77.4667 22.9952C77.3446 23.0308 77.2631 23.1784 77.3802 23.2802C77.5838 23.4482 77.7467 23.6722 77.9147 23.8758C77.9605 23.9318 78.0063 23.9827 78.0521 24.0387C77.6246 23.7282 77.2072 23.4075 76.7948 23.0817C76.917 22.7915 77.0901 22.5166 77.2377 22.2621V22.257ZM81.035 17.0035C81.2742 16.5912 81.5338 16.1941 81.7934 15.797C81.9512 15.5527 82.1192 15.3134 82.2821 15.0691C82.4144 14.9214 82.5468 14.784 82.6639 14.6669C82.1599 15.4203 81.6 16.2094 81.035 17.0035ZM86.1405 8.74651C86.1405 8.74651 86.1252 8.72105 86.115 8.71087C86.227 8.56325 86.3339 8.41053 86.4408 8.25781C86.339 8.42071 86.2372 8.5887 86.1456 8.74651H86.1405ZM168.271 18.4289C168.266 18.3881 168.266 18.3474 168.256 18.3118C168.225 18.1183 167.961 18.1642 167.92 18.3271C167.767 18.3016 167.615 18.2863 167.508 18.2711C166.927 18.1947 166.342 18.1743 165.757 18.1692C166.286 18.1234 166.821 18.0776 167.355 18.0522C167.584 18.042 167.584 17.6856 167.355 17.6958C164.011 17.874 160.666 18.322 157.353 18.7699C156.574 18.8768 155.8 18.9837 155.026 19.1161C155.021 19.1161 155.016 19.1212 155.006 19.1212C154.986 17.426 154.94 15.7308 154.884 14.0357C154.787 11.134 154.68 8.22726 154.436 5.3307C154.37 4.56201 154.319 3.76788 154.187 2.99919C154.187 2.87193 154.187 2.75484 154.176 2.65303C154.146 2.04725 154.156 1.32438 153.83 1.23784C153.749 1.2022 153.464 1.15639 153.067 1.11566C153.179 1.02912 153.148 0.800045 152.965 0.794954C152.359 0.774592 151.748 0.840769 151.148 0.912038C150.537 0.983307 149.921 1.07494 149.32 1.21748C149.239 1.16657 149.112 1.18693 149.066 1.27856C149.035 1.28874 149 1.29384 148.969 1.30402C148.791 1.35492 148.821 1.584 148.954 1.64C148.821 1.94543 148.857 2.79557 148.847 3.16718C148.837 3.50316 148.511 20.3379 148.389 23.6824C148.374 24.0133 148.419 24.2525 148.409 24.4205C148.328 25.9732 148.852 26.9455 151.636 26.4211C152.191 26.3804 153.036 26.0292 154.365 25.6932C156.467 25.1638 157.307 24.9194 157.521 24.8532C160.794 23.9929 160.972 23.8504 163.486 23.6162C163.766 23.5908 165.93 23.4228 166.556 23.4635C166.882 23.4839 167.162 23.4991 167.396 23.5144C167.442 23.5144 167.477 23.4991 167.518 23.4889C167.569 23.6264 167.803 23.6569 167.854 23.4788C168.052 22.8068 168.164 22.0992 168.251 21.4018C168.353 20.5822 168.398 19.7524 168.327 18.9278C168.449 18.943 168.592 18.8107 168.521 18.6579C168.475 18.5561 168.383 18.49 168.271 18.4391V18.4289ZM167.951 18.7139C167.986 19.0041 168.007 19.2943 168.007 19.5844C167.9 19.0805 167.737 18.7139 167.523 18.6325C167.635 18.6478 167.747 18.663 167.854 18.6885C167.884 18.6936 167.915 18.7089 167.951 18.7139ZM155.016 19.5946C155.8 19.4114 156.594 19.2688 157.388 19.1416C156.569 19.3299 155.77 19.5335 155.016 19.7524V19.5946ZM154.579 15.8428C154.543 15.1454 154.497 14.4429 154.451 13.7455C154.344 12.1521 154.222 10.5537 154.049 8.96031C154.059 7.81492 154.09 6.76625 154.115 5.84994C154.197 6.90879 154.263 7.96764 154.319 9.02649C154.436 11.2969 154.512 13.5724 154.573 15.8428H154.579ZM154.1 13.8066C154.181 15.0334 154.248 16.2654 154.299 17.4922C154.329 18.3067 154.37 19.1314 154.344 19.951C154.268 19.9764 154.181 19.9968 154.105 20.0222V13.8066H154.1ZM225.373 20.908C223.821 19.7473 222.207 18.6681 220.599 17.594C225.109 14.2902 227.465 11.0017 227.588 7.80474C227.608 7.41785 227.588 7.04115 227.521 6.6848C227.18 4.74019 225.74 3.28427 223.251 2.36796C223.317 2.38832 223.388 2.40868 223.454 2.43413C225.45 3.14173 227.394 4.58747 227.781 6.79171C227.954 7.78438 227.756 8.80759 227.282 9.68827C227.175 9.8919 227.481 10.0701 227.588 9.86644C228.534 8.10509 228.331 6.02302 227.094 4.45511C225.297 2.1796 222.126 1.46182 219.377 1.31929C218.196 1.2582 217.015 1.29893 215.839 1.41601C212.785 1.57891 209.37 2.27123 206.865 3.0501C206.677 3.1061 206.524 3.16718 206.397 3.22827C206.295 3.14173 206.081 3.23845 206.107 3.41663V3.4319C205.781 3.77806 206.015 4.26676 206.351 5.06599C206.545 5.52923 206.692 6.02811 206.937 6.37937C207.099 6.76625 207.283 7.14805 207.512 7.49421C207.583 7.60112 207.705 7.59094 207.782 7.52985C207.878 7.51967 207.975 7.50439 208.072 7.48912V8.28835C208.041 8.31889 208.021 8.35453 208.016 8.40543C207.878 10.5333 207.843 12.6714 207.771 14.8043L207.619 19.4012C207.496 21.3916 207.395 22.8475 207.384 23.097C207.359 23.5449 207.328 24.0896 207.42 24.5274C207.415 24.6394 207.41 24.7463 207.4 24.8583C207.4 24.9143 207.39 24.9754 207.384 25.0365C207.384 25.062 207.369 25.1739 207.379 25.1179C207.354 25.3216 207.634 25.4183 207.705 25.2605C207.731 25.2808 207.766 25.3012 207.807 25.3012C208.698 25.3674 209.589 25.4437 210.479 25.4539C211.34 25.4641 212.2 25.3928 213.055 25.291C213.096 25.4081 213.238 25.4896 213.335 25.3674C213.365 25.3267 213.391 25.2808 213.416 25.235C213.508 25.1892 213.539 25.0721 213.508 24.9907C213.533 24.8889 213.559 24.7871 213.574 24.6852C213.656 24.2475 213.701 23.7995 213.742 23.3515C213.798 22.7559 213.829 22.1603 213.859 21.5647C213.936 21.5596 214.022 21.5494 214.124 21.5443C214.307 21.5291 215.005 21.468 215.173 21.468C215.371 21.468 215.529 21.4578 215.656 21.4476C216.552 22.0127 217.412 22.6439 218.272 23.2548C219.713 24.278 221.143 25.3114 222.584 26.3295C223.307 26.8386 224.035 27.3476 224.768 27.8414C224.818 27.872 224.864 27.8771 224.905 27.8618C224.946 27.8618 224.992 27.8516 225.032 27.8109C225.852 27.0167 226.636 26.1921 227.374 25.3267C227.756 24.8787 228.132 24.4205 228.468 23.9369C228.473 23.942 228.483 23.9471 228.489 23.9522C228.662 24.1049 228.911 23.8504 228.738 23.7028C227.638 22.7355 226.529 21.7887 225.358 20.9131L225.373 20.908ZM222.126 19.0499C221.462 18.661 220.783 18.2993 220.09 17.9656C220.161 17.9147 220.222 17.8689 220.293 17.818C220.904 18.2303 221.515 18.6376 222.126 19.0499ZM211.894 25.0467C212.235 24.8583 212.521 24.5834 212.744 24.2322C212.688 24.4867 212.622 24.7412 212.551 24.9907C212.332 25.011 212.113 25.0314 211.894 25.0467ZM213.106 6.0892C213.788 5.93139 214.409 5.82449 214.994 5.73795C214.47 5.83467 213.956 5.94666 213.447 6.06884C213.376 6.0332 213.274 6.05866 213.218 6.12484C213.182 6.13502 213.142 6.1452 213.106 6.15029V6.08411V6.0892ZM213.126 6.51681C213.162 6.50663 213.198 6.50154 213.228 6.49136C213.401 7.3364 213.437 8.22726 213.483 9.08249C213.569 10.5588 213.605 12.0401 213.625 13.5164L213.64 15.1301C213.554 15.1658 213.467 15.2014 213.381 15.232C213.35 12.707 213.274 9.84608 213.121 6.51681H213.126ZM221.291 9.37774C220.701 10.5231 219.733 11.4649 218.736 12.259C217.31 13.3942 215.687 14.28 214.002 14.9825C213.997 13.1703 213.956 11.358 213.864 9.55082C213.813 8.51234 213.783 7.43312 213.574 6.40482C215.254 6.00775 216.995 5.7125 218.715 5.84485C219.657 5.91612 220.868 6.1452 221.423 7.0106C221.892 7.73856 221.657 8.65997 221.291 9.37774ZM221.724 9.28611C222.029 8.5887 222.182 7.79965 221.866 7.08696C221.525 6.31319 220.746 5.90594 219.952 5.69213C220.186 5.74304 220.405 5.79904 220.609 5.88049C221.495 6.22156 221.978 6.83752 222.1 7.51457C222.202 8.08981 222.075 8.65996 221.724 9.28102V9.28611ZM207.741 7.17859C207.68 7.08187 207.624 6.98515 207.568 6.88843C207.944 7.10224 208 7.07169 208.072 7.09714V7.13787C207.96 7.15314 207.853 7.16841 207.741 7.17859ZM213.447 22.6846C213.406 23.2344 213.365 23.7893 213.279 24.334C213.254 24.5122 213.223 24.6852 213.177 24.8583C213.177 24.8787 213.167 24.894 213.162 24.9143C213.086 24.9245 213.009 24.9347 212.933 24.9398C213.162 24.1049 213.32 23.2293 213.335 22.3588C213.35 22.2112 213.376 22.0687 213.386 21.9058C213.371 21.748 213.371 21.6665 213.508 21.6156C213.488 21.9669 213.472 22.3232 213.447 22.6744V22.6846ZM216.297 21.4272C216.542 21.4832 216.766 21.692 217.565 22.3028C217.331 22.1399 217.097 21.9719 216.862 21.809C216.674 21.6818 216.491 21.5545 216.303 21.4272H216.297ZM227.104 25.1129C226.398 25.9315 225.656 26.7179 224.88 27.4698C224.808 27.424 224.742 27.3731 224.676 27.3273C224.773 27.2815 224.864 27.2051 224.956 27.088C225.399 26.5077 227.72 24.2831 227.75 23.2955C227.908 23.4279 228.066 23.5653 228.219 23.6977C227.878 24.1915 227.496 24.6547 227.104 25.1078V25.1129Z" fill="#190064"/>
</g>
<defs>
<clipPath id="clip0_2_975">
<rect width="40" height="40" fill="white" transform="translate(0.460022)"/>
</clipPath>
<clipPath id="clip1_2_975">
<rect width="229.06" height="28" fill="white" transform="translate(52.46)"/>
</clipPath>
</defs>
</svg>
