<svg width="16" height="16" viewBox="0 0 16 16" fill="none" xmlns="http://www.w3.org/2000/svg">
<g clip-path="url(#clip0_2_1031)">
<path d="M13.3233 5.33331H2.65666C2.28847 5.33331 1.98999 5.63179 1.98999 5.99998V7.33331C1.98999 7.7015 2.28847 7.99998 2.65666 7.99998H13.3233C13.6915 7.99998 13.99 7.7015 13.99 7.33331V5.99998C13.99 5.63179 13.6915 5.33331 13.3233 5.33331Z" stroke="#999999" stroke-linecap="round" stroke-linejoin="round"/>
<path d="M7.98999 5.33331V14" stroke="#999999" stroke-linecap="round" stroke-linejoin="round"/>
<path d="M12.6567 8V12.6667C12.6567 13.0203 12.5162 13.3594 12.2661 13.6095C12.0161 13.8595 11.6769 14 11.3233 14H4.65666C4.30303 14 3.9639 13.8595 3.71385 13.6095C3.4638 13.3594 3.32332 13.0203 3.32332 12.6667V8" stroke="#999999" stroke-linecap="round" stroke-linejoin="round"/>
<path d="M4.98999 5.33332C4.54796 5.33332 4.12404 5.15773 3.81148 4.84516C3.49892 4.5326 3.32332 4.10868 3.32332 3.66665C3.32332 3.22463 3.49892 2.8007 3.81148 2.48814C4.12404 2.17558 4.54796 1.99999 4.98999 1.99999C5.63311 1.98878 6.26334 2.30083 6.79848 2.89543C7.33362 3.49003 7.74884 4.33959 7.98999 5.33332C8.23114 4.33959 8.64636 3.49003 9.1815 2.89543C9.71664 2.30083 10.3469 1.98878 10.99 1.99999C11.432 1.99999 11.8559 2.17558 12.1685 2.48814C12.4811 2.8007 12.6567 3.22463 12.6567 3.66665C12.6567 4.10868 12.4811 4.5326 12.1685 4.84516C11.8559 5.15773 11.432 5.33332 10.99 5.33332" stroke="#999999" stroke-linecap="round" stroke-linejoin="round"/>
</g>
<defs>
<clipPath id="clip0_2_1031">
<rect width="16" height="16" fill="white" transform="translate(-0.0100098)"/>
</clipPath>
</defs>
</svg>
