<svg width="1639" height="37" viewBox="0 0 1639 37" fill="none" xmlns="http://www.w3.org/2000/svg">
<path d="M1609.87 27.2119C1609.98 27.2675 1610.1 27.2965 1610.22 27.2965C1610.35 27.2965 1610.47 27.2675 1610.58 27.2119C1610.58 27.2119 1613.01 25.9998 1614.95 23.9361C1616.31 22.4888 1617.42 20.6306 1617.42 18.5013V12.9042C1617.42 12.7415 1617.37 12.5826 1617.28 12.4489C1617.19 12.3152 1617.05 12.2129 1616.9 12.1558L1610.51 9.75704C1610.32 9.68906 1610.13 9.68906 1609.94 9.75704L1603.55 12.1558C1603.4 12.2129 1603.26 12.3152 1603.17 12.4489C1603.08 12.5826 1603.03 12.7415 1603.03 12.9042V18.5013C1603.03 20.6306 1604.14 22.4888 1605.5 23.9361C1607.44 25.9998 1609.87 27.2119 1609.87 27.2119ZM1608.83 20.4307L1614.14 15.1182C1614.2 15.0546 1614.28 15.0041 1614.36 14.9697C1614.44 14.9353 1614.53 14.9175 1614.62 14.9175C1614.71 14.9175 1614.8 14.9353 1614.88 14.9697C1614.97 15.0041 1615.04 15.0546 1615.11 15.1182C1615.17 15.1819 1615.22 15.2574 1615.26 15.3406C1615.29 15.4237 1615.31 15.5128 1615.31 15.6028C1615.31 15.6928 1615.29 15.7819 1615.26 15.865C1615.22 15.9482 1615.17 16.0237 1615.11 16.0873L1609.31 21.8843C1609.25 21.948 1609.17 21.9986 1609.09 22.0331C1609 22.0676 1608.92 22.0854 1608.83 22.0854C1608.74 22.0854 1608.65 22.0676 1608.56 22.0331C1608.48 21.9986 1608.4 21.948 1608.34 21.8843L1605.34 18.8859C1605.28 18.8222 1605.23 18.7467 1605.19 18.6636C1605.16 18.5804 1605.14 18.4913 1605.14 18.4013C1605.14 18.3113 1605.16 18.2222 1605.19 18.1391C1605.23 18.056 1605.28 17.9804 1605.34 17.9168C1605.41 17.8532 1605.48 17.8027 1605.57 17.7682C1605.65 17.7338 1605.74 17.7161 1605.83 17.7161C1605.92 17.7161 1606.01 17.7338 1606.09 17.7682C1606.17 17.8027 1606.25 17.8532 1606.31 17.9168L1608.83 20.4307Z" fill="#6965DB"/>
</svg>
