<svg width="16" height="16" viewBox="0 0 16 16" fill="none" xmlns="http://www.w3.org/2000/svg">
<g clip-path="url(#clip0_2_1019)">
<path d="M5.98999 7.33333C7.46275 7.33333 8.65666 6.13943 8.65666 4.66667C8.65666 3.19391 7.46275 2 5.98999 2C4.51723 2 3.32332 3.19391 3.32332 4.66667C3.32332 6.13943 4.51723 7.33333 5.98999 7.33333Z" stroke="#999999" stroke-linecap="round" stroke-linejoin="round"/>
<path d="M1.98999 14V12.6667C1.98999 11.9594 2.27094 11.2811 2.77104 10.781C3.27114 10.281 3.94941 10 4.65666 10H7.32332C8.03057 10 8.70884 10.281 9.20894 10.781C9.70904 11.2811 9.98999 11.9594 9.98999 12.6667V14" stroke="#999999" stroke-linecap="round" stroke-linejoin="round"/>
<path d="M10.6567 2.08667C11.2303 2.23354 11.7387 2.56714 12.1018 3.03488C12.4648 3.50262 12.6619 4.07789 12.6619 4.67C12.6619 5.26212 12.4648 5.83739 12.1018 6.30513C11.7387 6.77287 11.2303 7.10647 10.6567 7.25334" stroke="#999999" stroke-linecap="round" stroke-linejoin="round"/>
<path d="M13.99 14V12.6666C13.9866 12.0781 13.7886 11.5072 13.4268 11.0429C13.0651 10.5786 12.5599 10.2471 11.99 10.1" stroke="#999999" stroke-linecap="round" stroke-linejoin="round"/>
</g>
<defs>
<clipPath id="clip0_2_1019">
<rect width="16" height="16" fill="white" transform="translate(-0.0100098)"/>
</clipPath>
</defs>
</svg>
