<svg width="82" height="37" viewBox="0 0 82 37" fill="none" xmlns="http://www.w3.org/2000/svg">
<rect x="9.58997" y="0.5" width="72" height="36" rx="8" fill="white" fill-opacity="0.96"/>
<path d="M26.09 19.1664L23.4236 16.5M23.4236 16.5L26.09 13.8336M23.4236 16.5H30.7564C31.4637 16.5 32.142 16.781 32.6421 17.2811C33.1422 17.7812 33.4232 18.4595 33.4232 19.1668C33.4232 19.8741 33.1422 20.5524 32.6421 21.0525C32.142 21.5527 31.4637 21.8336 30.7564 21.8336H30.09" stroke="#3D3D3D" stroke-linecap="round" stroke-linejoin="round"/>
<path d="M8.58997 8.5C8.58997 3.52944 12.6194 -0.5 17.59 -0.5H45.59V1.5H17.59C13.724 1.5 10.59 4.63401 10.59 8.5H8.58997ZM45.59 37.5H17.59C12.6194 37.5 8.58997 33.4706 8.58997 28.5H10.59C10.59 32.366 13.724 35.5 17.59 35.5H45.59V37.5ZM17.59 37.5C12.6194 37.5 8.58997 33.4706 8.58997 28.5V8.5C8.58997 3.52944 12.6194 -0.5 17.59 -0.5V1.5C13.724 1.5 10.59 4.63401 10.59 8.5V28.5C10.59 32.366 13.724 35.5 17.59 35.5V37.5ZM45.59 0.5V36.5V0.5Z" fill="#D6D6D6" mask="url(#path-2-inside-1_2_1065)"/>
<path d="M65.59 19.1664L68.2564 16.5M68.2564 16.5L65.59 13.8336M68.2564 16.5H60.9236C60.5734 16.5 60.2266 16.569 59.903 16.703C59.5795 16.837 59.2855 17.0335 59.0379 17.2811C58.7902 17.5287 58.5938 17.8227 58.4598 18.1463C58.3258 18.4698 58.2568 18.8166 58.2568 19.1668C58.2568 19.517 58.3258 19.8638 58.4598 20.1874C58.5938 20.5109 58.7902 20.8049 59.0379 21.0525C59.2855 21.3002 59.5795 21.4966 59.903 21.6306C60.2266 21.7646 60.5734 21.8336 60.9236 21.8336H61.59" stroke="#3D3D3D" stroke-linecap="round" stroke-linejoin="round"/>
<path d="M46.09 1H73.59C77.7321 1 81.09 4.35786 81.09 8.5V28.5C81.09 32.6421 77.7321 36 73.59 36H46.09V1Z" stroke="#D6D6D6"/>
</svg>
