<svg width="42" height="95" viewBox="0 0 42 95" fill="none" xmlns="http://www.w3.org/2000/svg">
<path d="M39.09 84C25.09 82 21.257 73.527 18.09 61.5C14.923 49.484 12.59 22.5 12.59 13" stroke="#B8B8B8" stroke-width="2" stroke-linecap="round"/>
<path fill-rule="evenodd" clip-rule="evenodd" d="M12.595 10.978L20.5 25.401L6.59003 26.25L12.595 10.978Z" fill="#B8B8B8"/>
<path d="M12.595 10.978C14.515 14.473 16.433 17.978 20.5 25.401M12.595 10.978C15.705 16.661 18.825 22.346 20.5 25.401M12.595 10.978C10.472 16.391 8.52603 21.32 6.59003 26.251M12.595 10.978C10.725 15.745 8.65903 20.994 6.59003 26.251M20.5 25.401C16.82 25.627 13.15 25.856 6.59003 26.251M20.5 25.401C15.221 25.731 9.93403 26.048 6.59003 26.251" stroke="#B8B8B8" stroke-width="2" stroke-linecap="round"/>
</svg>
