<svg width="88" height="80" viewBox="0 0 88 80" fill="none" xmlns="http://www.w3.org/2000/svg">
<g clip-path="url(#clip0_2_1101)">
<path d="M24.3431 18.8185C20.432 28.5645 20.2241 43.7349 26.782 50.2367C33.3326 56.7341 51.5127 59.3731 58.2778 60.2783" stroke="#B8B8B8" stroke-width="1.48493" stroke-linecap="round"/>
<path fill-rule="evenodd" clip-rule="evenodd" d="M64.5499 61.8978L54.8552 54.4723L52.6664 64.5859L64.5499 61.8978Z" fill="#B8B8B8"/>
<path d="M64.5499 61.8978C62.2016 60.0942 59.8451 58.292 54.8552 54.4723M64.5499 61.8978C60.7301 58.9751 56.9087 56.045 54.8552 54.4723M64.5499 61.8978C60.3388 62.8461 56.5034 63.7201 52.6664 64.5859M64.5499 61.8978C60.8407 62.7332 56.7573 63.6592 52.6664 64.5859M54.8552 54.4723C54.2761 57.1477 53.6947 59.8157 52.6664 64.5859M54.8552 54.4723C54.0192 58.3098 53.1921 62.1548 52.6664 64.5859" stroke="#B8B8B8" stroke-width="1.48493" stroke-linecap="round"/>
</g>
<defs>
<clipPath id="clip0_2_1101">
<rect width="63.1073" height="71.0087" fill="white" transform="translate(10.96 8.76001)"/>
</clipPath>
</defs>
</svg>
