<svg width="17" height="17" viewBox="0 0 17 17" fill="none" xmlns="http://www.w3.org/2000/svg">
<path d="M10.98 5.83362H10.988" stroke="#3D3D3D" stroke-linecap="round" stroke-linejoin="round"/>
<path d="M4.90802 2.60001H13.052C13.292 2.5999 13.5297 2.64709 13.7515 2.73886C13.9733 2.83064 14.1748 2.96522 14.3446 3.1349C14.5143 3.30458 14.649 3.50604 14.7409 3.72778C14.8327 3.94952 14.88 4.18719 14.88 4.42721V12.5728C14.88 13.0574 14.6875 13.5222 14.3448 13.8648C14.0022 14.2075 13.5374 14.4 13.0528 14.4H4.90722C4.42261 14.4 3.95786 14.2075 3.61519 13.8648C3.27253 13.5222 3.08002 13.0574 3.08002 12.5728V4.42721C3.08002 3.9426 3.27253 3.47785 3.61519 3.13518C3.95786 2.79251 4.42341 2.60001 4.90802 2.60001Z" stroke="#3D3D3D" stroke-linecap="round" stroke-linejoin="round"/>
<path d="M3.64642 10.5L6.31362 7.8336C6.93202 7.2376 7.69442 7.2376 8.31362 7.8336L11.6464 11.1664" stroke="#3D3D3D" stroke-linecap="round" stroke-linejoin="round"/>
<path d="M10.3136 9.8336L10.98 9.1664C11.5992 8.5712 12.3608 8.5712 12.98 9.1664L14.3136 10.5" stroke="#3D3D3D" stroke-linecap="round" stroke-linejoin="round"/>
</svg>
