<svg width="17" height="17" viewBox="0 0 17 17" fill="none" xmlns="http://www.w3.org/2000/svg">
<path d="M7.09441 13.052L13.3136 6.83361C13.4887 6.65848 13.6277 6.45057 13.7224 6.22175C13.8172 5.99293 13.866 5.74768 13.866 5.50001C13.866 5.25234 13.8172 5.00709 13.7224 4.77827C13.6277 4.54945 13.4887 4.34154 13.3136 4.16641C13.1385 3.99128 12.9306 3.85236 12.7017 3.75758C12.4729 3.6628 12.2277 3.61401 11.98 3.61401C11.7323 3.61401 11.4871 3.6628 11.2583 3.75758C11.0294 3.85236 10.8215 3.99128 10.6464 4.16641L4.42801 10.3856C4.18028 10.6332 3.98374 10.9271 3.84963 11.2507C3.71553 11.5742 3.64647 11.921 3.64641 12.2712V13.8336H5.20881C5.91601 13.8336 6.59441 13.552 7.09441 13.052Z" stroke="#3D3D3D" stroke-linecap="round" stroke-linejoin="round"/>
<path d="M9.98001 4.83362L12.6464 7.50002" stroke="#3D3D3D" stroke-linecap="round" stroke-linejoin="round"/>
</svg>
