<svg width="17" height="17" viewBox="0 0 17 17" fill="none" xmlns="http://www.w3.org/2000/svg">
<g clip-path="url(#clip0_2_1180)">
<path d="M5.34364 4.86365L8.36401 13.4404C8.38576 13.4857 8.41994 13.5239 8.46255 13.5505C8.50517 13.5772 8.55447 13.5912 8.60473 13.5909C8.6551 13.5912 8.70452 13.5773 8.74727 13.5506C8.79001 13.524 8.82431 13.4857 8.84619 13.4404L10.4346 9.95456L13.916 8.50437C13.9618 8.4844 14.0008 8.45157 14.0283 8.40988C14.0558 8.36818 14.0706 8.31941 14.0709 8.26947C14.0706 8.21952 14.0558 8.17075 14.0283 8.12905C14.0008 8.08736 13.9618 8.05453 13.916 8.03456L5.34364 4.86365Z" fill="#5B57D1" stroke="#5B57D1" stroke-width="0.909091" stroke-linecap="round" stroke-linejoin="round"/>
<path d="M10.7982 10.3182L14.0709 13.5909Z" fill="#5B57D1"/>
<path d="M10.7982 10.3182L14.0709 13.5909" stroke="#5B57D1" stroke-width="0.909091" stroke-linecap="round" stroke-linejoin="round"/>
</g>
<defs>
<clipPath id="clip0_2_1180">
<rect width="16" height="16" fill="white" transform="translate(0.980011 0.5)"/>
</clipPath>
</defs>
</svg>
