<svg width="39" height="79" viewBox="0 0 39 79" fill="none" xmlns="http://www.w3.org/2000/svg">
<g clip-path="url(#clip0_2_1128)">
<path d="M1.98001 77.5C15.98 75.5 33.813 65.527 36.98 53.5C40.147 41.484 30.98 18.5 27.48 10" stroke="#B8B8B8" stroke-width="2" stroke-linecap="round"/>
<path fill-rule="evenodd" clip-rule="evenodd" d="M25.145 1.59299L23.013 17.902L36.283 13.644L25.145 1.59299Z" fill="#B8B8B8"/>
<path d="M25.145 1.59299C24.623 5.54599 24.108 9.50899 23.013 17.902M25.144 1.59299C24.309 8.01699 23.464 14.447 23.014 17.901M25.144 1.59299C29.087 5.86599 32.689 9.75199 36.284 13.644M25.144 1.59299C28.617 5.35599 32.447 9.49599 36.284 13.644M23.014 17.901C26.524 16.776 30.027 15.658 36.284 13.644M23.014 17.901C28.052 16.293 33.094 14.669 36.284 13.644" stroke="#B8B8B8" stroke-width="2" stroke-linecap="round"/>
</g>
<defs>
<clipPath id="clip0_2_1128">
<rect width="38" height="78" fill="white" transform="translate(0.980011 0.5)"/>
</clipPath>
</defs>
</svg>
