<svg width="37" height="37" viewBox="0 0 37 37" fill="none" xmlns="http://www.w3.org/2000/svg">
<g clip-path="url(#clip0_2_1168)">
<path d="M16.3133 19.1667V14.1667C16.3133 13.9014 16.4187 13.6471 16.6062 13.4595C16.7938 13.272 17.0481 13.1667 17.3133 13.1667C17.5786 13.1667 17.8329 13.272 18.0205 13.4595C18.208 13.6471 18.3133 13.9014 18.3133 14.1667V18.5" stroke="#3D3D3D" stroke-width="0.833333" stroke-linecap="round" stroke-linejoin="round"/>
<path d="M18.3133 14.1667V12.8333C18.3133 12.702 18.3392 12.572 18.3895 12.4507C18.4397 12.3293 18.5134 12.2191 18.6062 12.1262C18.6991 12.0334 18.8093 11.9597 18.9307 11.9095C19.052 11.8592 19.182 11.8333 19.3133 11.8333C19.4447 11.8333 19.5747 11.8592 19.696 11.9095C19.8174 11.9597 19.9276 12.0334 20.0205 12.1262C20.1133 12.2191 20.187 12.3293 20.2372 12.4507C20.2875 12.572 20.3133 12.702 20.3133 12.8333V18.5" stroke="#3D3D3D" stroke-width="0.833333" stroke-linecap="round" stroke-linejoin="round"/>
<path d="M20.3133 14.1667C20.3133 13.9014 20.4187 13.6471 20.6062 13.4595C20.7938 13.272 21.0481 13.1667 21.3133 13.1667C21.5786 13.1667 21.8329 13.272 22.0205 13.4595C22.208 13.6471 22.3133 13.9014 22.3133 14.1667V18.5" stroke="#3D3D3D" stroke-width="0.833333" stroke-linecap="round" stroke-linejoin="round"/>
<path d="M22.3133 15.5C22.3133 15.2348 22.4187 14.9804 22.6062 14.7929C22.7938 14.6054 23.0481 14.5 23.3133 14.5C23.5786 14.5 23.8329 14.6054 24.0205 14.7929C24.208 14.9804 24.3133 15.2348 24.3133 15.5V21.1667C24.3133 22.2275 23.8919 23.2449 23.1418 23.9951C22.3916 24.7452 21.3742 25.1667 20.3133 25.1667H18.98H19.1187C18.4562 25.1668 17.8041 25.0024 17.2209 24.6882C16.6377 24.374 16.1417 23.9199 15.7773 23.3667C15.7336 23.3001 15.6901 23.2334 15.6467 23.1667C15.4387 22.8473 14.7087 21.5747 13.456 19.348C13.3283 19.121 13.2942 18.8532 13.3609 18.6014C13.4277 18.3497 13.59 18.1339 13.8133 18C14.0513 17.8572 14.3301 17.7981 14.6055 17.8319C14.8808 17.8657 15.137 17.9906 15.3333 18.1867L16.3133 19.1667" stroke="#3D3D3D" stroke-width="0.833333" stroke-linecap="round" stroke-linejoin="round"/>
</g>
<defs>
<clipPath id="clip0_2_1168">
<rect width="16" height="16" fill="white" transform="translate(10.98 10.5)"/>
</clipPath>
</defs>
</svg>
