<svg width="37" height="37" viewBox="0 0 37 37" fill="none" xmlns="http://www.w3.org/2000/svg">
<path d="M21.8136 17.3336H16.1464C15.616 17.3336 15.1073 17.5443 14.7322 17.9194C14.3571 18.2945 14.1464 18.8032 14.1464 19.3336V22.3336C14.1464 22.8641 14.3571 23.3728 14.7322 23.7478C15.1073 24.1229 15.616 24.3336 16.1464 24.3336H21.8136C22.344 24.3336 22.8527 24.1229 23.2278 23.7478C23.6029 23.3728 23.8136 22.8641 23.8136 22.3336V19.3336C23.8136 18.8032 23.6029 18.2945 23.2278 17.9194C22.8527 17.5443 22.344 17.3336 21.8136 17.3336Z" stroke="#3D3D3D" stroke-linecap="round" stroke-linejoin="round"/>
<path d="M18.98 21.6664C19.0916 21.6699 19.2027 21.6509 19.3069 21.6106C19.411 21.5702 19.5059 21.5094 19.5861 21.4317C19.6662 21.354 19.73 21.261 19.7735 21.1582C19.817 21.0554 19.8394 20.9448 19.8394 20.8332C19.8394 20.7216 19.817 20.6111 19.7735 20.5082C19.73 20.4054 19.6662 20.3124 19.5861 20.2347C19.5059 20.157 19.411 20.0962 19.3069 20.0559C19.2027 20.0155 19.0916 19.9965 18.98 20C18.7635 20.0067 18.5581 20.0974 18.4073 20.253C18.2565 20.4085 18.1722 20.6166 18.1722 20.8332C18.1722 21.0498 18.2565 21.2579 18.4073 21.4134C18.5581 21.569 18.7635 21.6597 18.98 21.6664Z" stroke="#3D3D3D" stroke-linecap="round" stroke-linejoin="round"/>
<mask id="mask0_2_1156" style="mask-type:alpha" maskUnits="userSpaceOnUse" x="16" y="11" width="7" height="8">
<path d="M16.0992 18.1488V14.64C16.0992 13.896 16.42 13.1816 16.992 12.656C17.5822 12.1224 18.3508 11.829 19.1464 11.8336C19.9544 11.8336 20.7304 12.1296 21.3016 12.6552C21.8736 13.1816 22.1944 13.8952 22.1944 14.64" fill="white"/>
</mask>
<g mask="url(#mask0_2_1156)">
<path d="M15.0992 18.1488V19.1488H17.0992V18.1488H15.0992ZM21.1944 14.64V15.64H23.1944V14.64H21.1944ZM17.0984 17.308V14.64H15.0984V17.308H17.0984ZM17.0984 14.64C17.0984 14.1888 17.2928 13.7384 17.6688 13.392L16.3144 11.92C15.5472 12.6264 15.0984 13.6032 15.0984 14.64H17.0984ZM17.6688 13.392C18.0746 13.0285 18.6016 12.8296 19.1464 12.8344V10.8344C18.0984 10.8344 17.0784 11.216 16.3144 11.92L17.668 13.3912L17.6688 13.392ZM19.1464 12.8344C19.7144 12.8344 20.2456 13.0424 20.624 13.392L21.9792 11.9208C21.2043 11.2173 20.1931 10.8297 19.1464 10.8344V12.8344ZM20.624 13.392C21 13.7384 21.1944 14.1888 21.1944 14.64H23.1944C23.1944 13.6032 22.7472 12.6272 21.9792 11.9208L20.624 13.392Z" fill="#3D3D3D"/>
</g>
</svg>
